<?xml version="1.0" standalone="no"?>
<!DOCTYPE svg PUBLIC "-//W3C//DTD SVG 20010904//EN"
 "http://www.w3.org/TR/2001/REC-SVG-20010904/DTD/svg10.dtd">
<svg version="1.0" xmlns="http://www.w3.org/2000/svg"
 width="560.000000pt" height="560.000000pt" viewBox="0 0 560.000000 560.000000"
 preserveAspectRatio="xMidYMid meet">
<metadata>
Created by potrace 1.11, written by Peter Selinger 2001-2013
</metadata>
<g transform="translate(0.000000,560.000000) scale(0.100000,-0.100000)"
fill="#000000" stroke="none">
<path d="M910 4883 l0 -718 469 0 c412 0 470 2 473 15 2 8 4 144 3 303 l-1
287 76 1 c149 1 676 -3 720 -5 115 -7 224 -21 395 -50 11 -2 49 -11 85 -21
692 -177 1138 -609 1299 -1259 17 -66 28 -123 25 -127 -7 -11 -133 -105 -209
-156 -113 -75 -262 -162 -376 -218 -63 -31 -121 -60 -129 -64 -142 -75 -633
-245 -775 -268 -16 -3 -37 -9 -45 -13 -8 -4 -31 -11 -50 -14 -19 -3 -46 -8
-60 -11 -14 -2 -59 -12 -100 -20 -101 -21 -118 -24 -160 -30 -20 -3 -45 -7
-55 -9 -11 -2 -45 -7 -75 -11 -30 -3 -66 -8 -80 -10 -40 -6 -110 -14 -190 -21
-41 -3 -91 -8 -110 -10 -111 -11 -675 -23 -675 -14 0 0 -40 3 -90 5 -93 4
-201 14 -236 20 -10 2 -19 0 -19 -6 0 -5 9 -9 20 -9 11 0 20 -4 20 -10 0 -5 4
-10 10 -10 5 0 35 -11 67 -26 32 -14 58 -24 58 -22 1 2 12 -4 25 -13 14 -8 48
-23 75 -33 28 -10 64 -24 80 -32 52 -23 320 -108 370 -118 6 -1 19 -5 30 -9
11 -3 31 -8 45 -11 14 -3 40 -9 58 -15 18 -5 33 -10 35 -9 4 0 83 -13 127 -22
58 -12 116 -21 160 -25 19 -2 53 -6 75 -10 122 -18 457 -24 595 -11 41 4 95 9
120 11 25 3 54 6 65 8 11 3 45 8 75 12 30 4 62 9 70 11 8 2 56 12 105 23 50
11 115 28 145 36 30 9 69 20 85 25 243 70 551 217 804 384 69 45 132 86 139
90 9 6 11 -4 7 -42 -10 -96 -23 -199 -30 -232 -3 -14 -8 -38 -11 -55 -7 -38
-8 -41 -22 -90 -6 -22 -13 -51 -16 -65 -18 -96 -157 -417 -218 -505 -122 -171
-255 -318 -353 -391 -22 -16 -42 -31 -45 -34 -39 -40 -298 -181 -392 -214 -24
-8 -66 -23 -93 -34 -46 -17 -183 -54 -245 -66 -14 -3 -34 -7 -45 -9 -38 -8
-165 -26 -225 -32 -25 -2 -74 -7 -110 -10 -50 -5 -766 -10 -815 -6 -7 1 -11
100 -10 302 0 165 -2 304 -5 308 -3 4 -215 7 -473 7 l-467 0 2 -720 3 -720
835 1 c459 0 876 4 925 8 50 3 115 8 145 10 134 9 452 63 595 101 11 3 25 6
30 8 6 1 26 7 45 13 19 6 69 21 110 34 193 57 464 180 660 299 58 35 107 66
110 69 3 3 28 22 55 41 60 42 67 47 164 130 121 104 246 234 340 355 34 44 68
87 74 95 7 8 18 28 26 43 8 15 18 27 23 27 4 0 8 4 8 10 0 5 15 34 34 63 94
147 236 469 271 613 3 10 18 70 34 133 16 62 32 129 35 150 3 20 8 47 10 61
13 65 26 163 33 240 9 102 9 538 0 630 -14 150 -17 176 -22 190 -2 8 -7 31 -9
50 -3 20 -7 47 -10 60 -3 14 -8 37 -11 53 -15 79 -29 138 -46 192 -5 17 -20
64 -33 106 -34 108 -71 200 -122 305 -24 51 -44 96 -44 102 0 6 -3 12 -8 14
-6 3 -90 137 -101 162 -2 5 -9 16 -16 25 -8 9 -44 57 -81 106 -292 388 -718
677 -1254 851 -58 19 -112 36 -120 38 -34 7 -76 18 -100 26 -14 5 -38 11 -55
14 -16 3 -41 7 -55 11 -22 5 -62 13 -155 30 -16 3 -48 8 -70 11 -22 3 -51 7
-65 10 -14 2 -43 6 -65 9 -22 2 -62 7 -90 10 -27 4 -72 9 -100 12 -27 2 -474
7 -992 10 l-943 4 0 -718z"/>
<path d="M1947 3594 c-1 -1 -54 -4 -117 -8 -120 -7 -143 -9 -225 -20 -135 -19
-169 -24 -241 -41 -34 -8 -73 -16 -85 -19 -35 -6 -266 -76 -304 -91 -11 -4
-49 -19 -85 -33 -72 -27 -87 -34 -210 -90 -47 -21 -88 -39 -92 -41 -4 -1 -63
-34 -130 -73 -183 -105 -366 -229 -372 -251 -7 -28 -8 -637 -1 -637 3 0 36 24
73 53 259 205 577 386 904 515 141 56 346 127 395 137 10 2 32 8 48 15 17 6
30 11 30 10 0 -3 58 11 85 20 32 10 167 42 200 46 14 2 59 11 100 19 90 19
123 25 170 31 19 3 49 7 65 10 70 10 248 32 265 32 8 0 40 3 70 6 129 14 251
18 515 19 296 0 417 -6 578 -27 15 -2 27 -2 27 0 0 5 -85 48 -85 43 0 -2 -13
6 -29 19 -16 12 -36 22 -45 22 -10 0 -21 4 -26 9 -13 12 -235 103 -305 126
-30 10 -59 20 -65 24 -5 3 -14 6 -20 8 -36 8 -55 13 -95 27 -45 15 -246 66
-285 72 -11 1 -45 7 -75 13 -107 20 -149 26 -245 36 -61 7 -384 22 -388 19z"/>
</g>
</svg>
