<svg width="115" height="138" viewBox="0 0 115 138" fill="none" xmlns="http://www.w3.org/2000/svg">
<path d="M23.0236 9.9519H2V64.3081C2 85.3317 20.6271 114.358 56.683 134.946L62.2385 129.826M94.3729 9.9519H113V64.3081C110.002 73.0558 107.664 77.3299 102.978 84.4602M94.3729 16.3788H105.811V64.3081C103.66 71.591 101.532 75.5717 96.7694 82.4995M23.0236 16.3788H8.97154V64.3081C8.97154 84.787 28.163 107.816 56.683 127.43L59.2974 124.598" stroke="#3C83B7" stroke-width="4"/>
<path d="M26.4465 34.897H21V26.6183H25.5751M26.4465 34.897V68.5564C31.1691 73.751 33.8165 74.1533 38.5378 68.5564M26.4465 34.897H38.5378M38.5378 68.5564V34.897M38.5378 68.5564C45.1753 74.853 47.4422 73.3923 50.8469 68.5564M38.5378 34.897H50.8469M50.8469 68.5564V34.897M50.8469 68.5564C55.7848 72.4097 58.5458 71.8925 63.4828 68.5564M50.8469 34.897H63.4828M63.4828 68.5564V34.897M63.4828 68.5564C68.7499 73.4084 71.5946 74.0163 76.3366 68.5564M63.4828 34.897H76.3366M76.3366 68.5564V34.897M76.3366 68.5564C81.7379 72.8587 84.3275 72.7334 88.4279 68.5564V34.897M76.3366 34.897H88.4279M88.4279 34.897H93.7655V26.6183H43.3307M25.5751 26.6183V22.9146H27.5358M25.5751 26.6183H43.3307M43.3307 26.6183V22.9146H39.3003M39.3003 22.9146C39.3003 22.0432 40.6075 18.0128 43.3307 18.0128M39.3003 22.9146H27.5358M43.3307 18.0128H81.3474M43.3307 18.0128C42.1325 13.1109 41.5878 8.97154 42.1325 4.72326M81.3474 18.0128V20.736H87.6654V2H81.3474V4.72326M81.3474 18.0128V4.72326M81.3474 4.72326H42.1325M42.1325 4.72326C32.8734 4.72326 27.5358 10.9323 27.5358 22.9146" stroke="#3C83B7" stroke-width="4"/>
<path d="M75.6792 86.1452C69.688 89.4131 67.1826 90.1756 59.0128 92.1363C59.0128 96.0578 59.0128 98.894 60.1021 103.901M75.6792 86.1452V103.901M75.6792 86.1452C81.3181 89.1954 84.2775 89.6075 92.5337 92.1363C92.3003 95.4091 91.8891 100.856 91.011 103.901M75.6792 121.765C76.5986 121.491 77.4791 121.153 78.321 120.757C82.1785 118.939 85.2267 115.888 87.5112 112.097C88.9963 109.633 90.1587 106.855 91.011 103.901M75.6792 121.765C73.1533 120.915 63.3163 117.735 60.1021 103.901M75.6792 121.765V103.901M60.1021 103.901C64.6772 103.901 73.3916 103.901 75.6792 103.901M60.1021 103.901H75.6792M75.6792 103.901H91.011M53.2395 87.0166C61.6 85.3554 66.3469 83.7825 75.0256 79.0647C83.6075 84.0715 88.7993 85.3652 97.6044 86.8409C97.9516 86.8991 98.3045 86.9576 98.6635 87.0166C98.9273 91.1979 98.7525 95.1711 98.208 98.8941C95.8302 115.151 86.4037 126.635 75.6792 129.826C73.7158 128.918 71.8893 127.959 70.196 126.939C67.8266 125.512 65.7182 123.967 63.8609 122.278C55.2632 114.457 52.0472 103.55 53.2395 87.0166Z" stroke="#3C83B7" stroke-width="4"/>
</svg>
