<svg width="154" height="159" viewBox="0 0 154 159" fill="none" xmlns="http://www.w3.org/2000/svg">
<path d="M27.1508 18.6212L27.1508 18.6212C27.3687 18.312 27.9209 17.7897 29.1584 17.0741C30.3596 16.3794 32.0119 15.6112 34.2051 14.724C38.5958 12.9479 44.826 10.8233 53.2719 7.94457C53.2719 7.94457 53.2719 7.94457 53.2719 7.94457L56.4783 6.85171L55.6717 4.48538L56.4783 6.85171C65.4083 3.80798 69.3412 2.5 73.3731 2.5C77.405 2.5 81.338 3.80798 90.2681 6.85171L93.4744 7.94457C101.92 10.8233 108.151 12.9479 112.541 14.724C114.734 15.6112 116.387 16.3794 117.588 17.0741C118.825 17.7897 119.378 18.312 119.596 18.6212C119.82 18.9397 120.133 19.6469 120.406 21.06C120.672 22.432 120.862 24.2539 120.992 26.6242C121.251 31.3696 121.252 37.9699 121.252 46.9134V55.6905C121.252 85.5667 98.7621 100.189 84.1389 106.55C82.0841 107.443 80.756 108.015 79.2624 108.396C77.8043 108.767 76.0944 108.977 73.3731 108.977C70.6518 108.977 68.9419 108.767 67.4838 108.396C65.9901 108.015 64.662 107.443 62.6071 106.55C47.9839 100.189 25.4941 85.5668 25.4941 55.6905V46.9134C25.4941 37.9699 25.4951 31.3696 25.7546 26.6242C25.8842 24.2539 26.0746 22.432 26.3401 21.06C26.6136 19.6469 26.9262 18.9398 27.1508 18.6212Z" stroke="#3C83B7" stroke-width="5"/>
<path d="M66.9651 35.3587L66.2273 36.6504C65.417 38.0693 65.0118 38.7787 64.3804 39.2468C63.7484 39.7149 62.9617 39.8886 61.3886 40.2362L59.9562 40.5525C54.4195 41.7754 51.6512 42.3869 50.9925 44.4545C50.3339 46.5222 52.2212 48.6762 55.9957 52.9852L56.9723 54.0999C58.0449 55.3244 58.5811 55.9363 58.8225 56.6939C59.0637 57.4514 58.9826 58.2677 58.8204 59.9015L58.6728 61.3891C58.1021 67.1375 57.8168 70.0122 59.5411 71.29C61.2654 72.5677 63.8576 71.4026 69.0416 69.0728L70.3826 68.4696C71.8559 67.8077 72.5925 67.4764 73.3731 67.4764C74.1536 67.4764 74.8902 67.8077 76.3635 68.4696L77.7045 69.0728C82.8885 71.4026 85.4805 72.5677 87.2048 71.29C88.9296 70.0122 88.6437 67.1375 88.0731 61.3891L87.9256 59.9015C87.7636 58.2677 87.6825 57.4509 87.924 56.6939C88.1648 55.9363 88.7011 55.3244 89.7737 54.0999L90.7506 52.9852C94.525 48.6762 96.4124 46.5222 95.7534 44.4545C95.095 42.3869 92.3269 41.7754 86.79 40.5525L85.3573 40.2362C83.7844 39.8886 82.9977 39.7149 82.3657 39.2468C81.7343 38.7788 81.3292 38.0693 80.5188 36.6505L79.781 35.3587C76.9302 30.3658 75.5042 27.8692 73.3731 27.8692C71.242 27.8692 69.816 30.3658 66.9651 35.3587Z" fill="#3C83B7"/>
<ellipse cx="95.8822" cy="86.2874" rx="35.3725" ry="34.8365" fill="white"/>
<path d="M100.891 63.2417C101.273 63.2417 101.646 63.36 101.955 63.5797C102.264 63.7993 102.494 64.1089 102.611 64.4638L104.599 70.4828C105.434 70.8808 106.232 71.3281 106.995 71.8317L113.341 70.5004C113.715 70.4226 114.105 70.4625 114.454 70.6144C114.804 70.7663 115.095 71.0223 115.285 71.3457L120.294 79.7948C120.485 80.118 120.566 80.492 120.525 80.8629C120.484 81.2338 120.324 81.5825 120.066 81.8586L115.711 86.5428C115.775 87.441 115.775 88.3424 115.711 89.2406L120.066 93.9318C120.324 94.208 120.484 94.5567 120.525 94.9276C120.566 95.2985 120.485 95.6725 120.294 95.9957L115.285 104.448C115.094 104.771 114.803 105.026 114.453 105.178C114.104 105.329 113.715 105.368 113.341 105.29L106.995 103.959C106.236 104.459 105.434 104.91 104.602 105.308L102.611 111.327C102.494 111.682 102.264 111.991 101.955 112.211C101.646 112.43 101.273 112.549 100.891 112.549H90.8732C90.4906 112.549 90.118 112.43 89.8088 112.211C89.4997 111.991 89.2701 111.682 89.153 111.327L87.169 105.311C86.3364 104.914 85.5334 104.461 84.7657 103.955L78.4234 105.29C78.0492 105.368 77.6593 105.328 77.3099 105.176C76.9605 105.024 76.6696 104.768 76.4791 104.445L71.4702 95.9957C71.279 95.6725 71.198 95.2985 71.2389 94.9276C71.2798 94.5567 71.4405 94.208 71.6979 93.9318L76.0526 89.2406C75.9896 88.3447 75.9896 87.4457 76.0526 86.5499L71.6979 81.8586C71.4405 81.5825 71.2798 81.2338 71.2389 80.8629C71.198 80.492 71.279 80.118 71.4702 79.7948L76.4791 71.3421C76.6701 71.0194 76.9613 70.7641 77.3106 70.6129C77.66 70.4616 78.0496 70.4222 78.4234 70.5004L84.7657 71.8352C85.5319 71.3316 86.3342 70.8773 87.169 70.4793L89.1566 64.4638C89.2733 64.11 89.5018 63.8013 89.8095 63.5817C90.1172 63.3622 90.4883 63.2432 90.8696 63.2417H100.887H100.891ZM99.5682 66.7636H92.1959L90.1432 72.9869L88.7591 73.6455C88.0786 73.97 87.4218 74.3395 86.7931 74.7514L85.5138 75.5966L78.951 74.216L75.2648 80.4428L79.7641 85.2961L79.6557 86.7894C79.6038 87.5257 79.6038 88.2647 79.6557 89.0011L79.7641 90.4944L75.2576 95.3477L78.9474 101.574L85.5102 100.197L86.7895 101.039C87.4182 101.451 88.075 101.82 88.7555 102.145L90.1396 102.804L92.1959 109.027H99.5754L101.635 102.8L103.016 102.145C103.696 101.821 104.351 101.452 104.978 101.039L106.254 100.197L112.82 101.574L116.507 95.3477L112.004 90.4944L112.112 89.0011C112.164 88.2636 112.164 87.5234 112.112 86.7858L112.004 85.2925L116.51 80.4428L112.82 74.216L106.254 75.5896L104.978 74.7514C104.351 74.3387 103.696 73.9691 103.016 73.6455L101.635 72.9904L99.5718 66.7636H99.5682ZM95.8821 77.3294C98.7574 77.3294 101.515 78.4426 103.548 80.4241C105.581 82.4056 106.724 85.093 106.724 87.8952C106.724 90.6975 105.581 93.3849 103.548 95.3664C101.515 97.3479 98.7574 98.461 95.8821 98.461C93.0067 98.461 90.249 97.3479 88.2158 95.3664C86.1826 93.3849 85.0404 90.6975 85.0404 87.8952C85.0404 85.093 86.1826 82.4056 88.2158 80.4241C90.249 78.4426 93.0067 77.3294 95.8821 77.3294ZM95.8821 80.8514C93.9651 80.8514 92.1267 81.5935 90.7712 82.9145C89.4158 84.2355 88.6543 86.0271 88.6543 87.8952C88.6543 89.7634 89.4158 91.555 90.7712 92.876C92.1267 94.197 93.9651 94.9391 95.8821 94.9391C97.799 94.9391 99.6374 94.197 100.993 92.876C102.348 91.555 103.11 89.7634 103.11 87.8952C103.11 86.0271 102.348 84.2355 100.993 82.9145C99.6374 81.5935 97.799 80.8514 95.8821 80.8514Z" fill="#3C83B7"/>
<path d="M2.19977 85.8219C10.3298 94.1011 26.3446 91.8184 36.0224 88.8632M127.5 95.65C140.517 90.806 146.461 94.0366 153.5 95.6502" stroke="#3C83B7" stroke-width="4"/>
<path d="M6.83483 101.639C16.0749 107.605 30.2921 102.92 38.5459 98.6956M126.5 87C137.416 80.5496 145.859 84.011 152.669 84.2654" stroke="#3C83B7" stroke-width="4"/>
</svg>
