<svg width="100" height="137" viewBox="0 0 100 137" fill="none" xmlns="http://www.w3.org/2000/svg">
<path d="M23 22.9993H2.5V125.999H86V22.9993H65M23 22.9993V13.9993H34.5C33 -0.499956 54.5 -2.5 53.5 13.9993H65V22.9993M23 22.9993V29.4993H65V22.9993M17.5 49.4993H70M17.5 68.9993H70M17.5 88.4993H40.5M17.5 107.499H37" stroke="#3C83B7" stroke-width="4"/>
<path d="M60.7229 104.417C59.8489 103.742 58.5928 103.903 57.9174 104.777C57.242 105.651 57.4031 106.907 58.2771 107.583L69.2771 116.083L70.6697 117.159L71.9142 115.914L87.4142 100.414C88.1953 99.6332 88.1953 98.3668 87.4142 97.5858C86.6332 96.8047 85.3668 96.8047 84.5858 97.5858L70.3303 111.841L60.7229 104.417ZM98 108.5C98 123.136 86.1355 135 71.5 135C56.8645 135 45 123.136 45 108.5C45 93.8645 56.8645 82 71.5 82C86.1355 82 98 93.8645 98 108.5Z" fill="white" stroke="#3C83B7" stroke-width="4" stroke-linecap="round"/>
</svg>
