<svg xmlns="http://www.w3.org/2000/svg" width="55" height="52" viewBox="0 0 55 52">
  <g fill="none" fill-rule="evenodd" stroke="#3C83B7" transform="translate(2 2)">
    <path stroke-width="2" d="M29,25 L33,29"/>
    <polygon stroke-width="2" points="37.079 26.167 44.22 26.164 44.209 48.78 37.067 48.783" transform="rotate(135 40.644 37.473)"/>
    <polygon stroke-width="2" points="8 10 13 5 4.667 0 3 1.667"/>
    <path stroke-width="2" d="M22 19L11 8M47 7.08902884L40.3155556 10.239895 36.9733333 6.77394222 39.8977778 1.27595511e-7 39.8977778 1.27595511e-7C31.5422222-.000840103376 29.4533333 4.14822044 29.4533333 8.34937529L29.4533333 11.7102992 1.46222222 40.2781522 0 45.3195381 1.77555556 47 6.84069333 45.7396535 35.3022222 17.591916 38.6444444 17.591916C42.8222222 17.591916 47 15.4913386 47 7.08902884L47 7.08902884z"/>
  </g>
</svg>
