<svg xmlns="http://www.w3.org/2000/svg" xmlns:xlink="http://www.w3.org/1999/xlink" width="62" height="62" viewBox="0 0 62 62">
  <defs>
    <polygon id="icon-twitter-a" points="0 0 62 0 62 51 0 51"/>
  </defs>
  <g fill="none" fill-rule="evenodd" transform="translate(0 6)">
    <mask id="icon-twitter-b" fill="#fff">
      <use xlink:href="#icon-twitter-a"/>
    </mask>
    <path fill="#9B9B9B" d="M19.4985839,51 C42.8965101,51 55.6907718,31.3805819 55.6907718,14.3679471 C55.6907718,13.8107495 55.6795369,13.256079 55.6547785,12.7037248 C58.1387315,10.8864101 60.2974966,8.61845186 62,6.03672782 C59.7209799,7.06225768 57.2682349,7.75254246 54.6952349,8.06378129 C57.3214966,6.4698931 59.337745,3.94839525 60.2889664,0.942560914 C57.8310201,2.41726022 55.1092617,3.48890733 52.2112819,4.06758414 C49.8900268,1.56503859 46.585302,0 42.9262617,0 C35.9015369,0 30.2048188,5.76570997 30.2048188,12.8732426 C30.2048188,13.8836106 30.3165436,14.8661819 30.5347919,15.8087428 C19.9623356,15.2704976 10.5878523,10.1472705 4.3148255,2.35682345 C3.22233557,4.25963408 2.59234899,6.4698931 2.59234899,8.82798003 C2.59234899,13.2948259 4.83787248,17.2383778 8.25286577,19.5450829 C6.16587919,19.4798028 4.20559732,18.9000731 2.49185906,17.9347694 C2.48998658,17.9888888 2.48998658,18.041534 2.48998658,18.0994438 C2.48998658,24.334539 6.87471812,29.5407351 12.6952282,30.7204103 C11.6264564,31.0154344 10.5017181,31.1735807 9.34098658,31.1735807 C8.52271141,31.1735807 7.72544966,31.0918753 6.95024161,30.9413098 C8.56973154,36.056956 13.2657114,39.7796083 18.8334362,39.8836354 C14.4797047,43.3375862 8.99520134,45.3947528 3.03425503,45.3947528 C2.00896644,45.3947528 0.995744966,45.3357901 0,45.2163906 C5.62972483,48.8687089 12.314698,50.9997894 19.4992081,50.9997894" mask="url(#icon-twitter-b)"/>
  </g>
</svg>
