<svg xmlns="http://www.w3.org/2000/svg" xmlns:xlink="http://www.w3.org/1999/xlink" width="62" height="62" viewBox="0 0 62 62">
  <defs>
    <polygon id="icon-facebook-a" points="0 0 62 0 62 62 0 62"/>
  </defs>
  <g fill="none" fill-rule="evenodd">
    <mask id="icon-facebook-b" fill="#fff">
      <use xlink:href="#icon-facebook-a"/>
    </mask>
    <path fill="#9B9B9B" d="M58.5784231,0 L3.42184935,0 C1.5315988,0 0,1.53180599 0,3.4217708 L0,58.5779568 C0,60.4677581 1.5315988,61.999782 3.42184935,61.999782 L33.1159472,61.999782 L33.1159472,37.9902816 L25.0362023,37.9902816 L25.0362023,28.6331985 L33.1159472,28.6331985 L33.1159472,21.7327154 C33.1159472,13.7245719 38.0068411,9.36405774 45.150833,9.36405774 C48.5724644,9.36405774 51.5138773,9.61890466 52.3708381,9.73273301 L52.3708381,18.1015964 L47.4160277,18.1039394 C43.5310152,18.1039394 42.7787838,19.9499858 42.7787838,22.6590897 L42.7787838,28.6331985 L52.0446623,28.6331985 L50.838095,37.9902816 L42.7790017,37.9902816 L42.7790017,61.999782 L58.5784231,61.999782 L58.5784231,62 C60.4679653,62 62,60.4677581 62,58.5782292 L62,3.4217708 C62,1.53153354 60.4677473,0 58.5784231,0" mask="url(#icon-facebook-b)"/>
  </g>
</svg>
