<svg xmlns="http://www.w3.org/2000/svg" xmlns:xlink="http://www.w3.org/1999/xlink" width="62" height="62" viewBox="0 0 62 62">
  <defs>
    <polygon id="icon-linkedin-a" points="0 0 62 0 62 62 0 62"/>
  </defs>
  <g fill="none" fill-rule="evenodd">
    <mask id="icon-linkedin-b" fill="#fff">
      <use xlink:href="#icon-linkedin-a"/>
    </mask>
    <path fill="#9B9B9B" d="M52.841731,52.8412222 L43.5215821,52.8412222 L43.5215821,36.6695556 C43.5215821,31.8955556 41.4929171,30.4247778 38.8752847,30.4247778 C36.1095495,30.4247778 33.3989223,32.5052222 33.3989223,36.7866667 L33.3989223,52.8412222 L24.0787734,52.8412222 L24.0787734,23.2293333 L33.04072,23.2293333 L33.04072,27.3316667 L33.1612688,27.3316667 C34.0636631,25.5095556 37.2117105,22.3992222 42.0198878,22.3992222 C47.22071,22.3992222 52.841731,25.482 52.841731,34.5271111 L52.841731,52.8412222 Z M13.8183434,19.1063333 C10.8528415,19.1063333 8.44530859,16.8433333 8.44530859,13.7536667 C8.44530859,10.6605556 10.8528415,8.401 13.8183434,8.401 C16.7872896,8.401 19.1913783,10.6605556 19.1913783,13.7536667 C19.1913783,16.8433333 16.7872896,19.1063333 13.8183434,19.1063333 L13.8183434,19.1063333 Z M9.15826899,52.8171111 L18.4784179,52.8171111 L18.4784179,23.2052222 L9.15826899,23.2052222 L9.15826899,52.8171111 Z M57.4225876,0 L4.57741237,0 C2.04933059,0 0,2.04944444 0,4.57766667 L0,57.4223333 C0,59.9505556 2.04933059,62 4.57741237,62 L57.4225876,62 C59.9506694,62 62,59.9505556 62,57.4223333 L62,4.57766667 C62,2.04944444 59.9506694,0 57.4225876,0 L57.4225876,0 Z" mask="url(#icon-linkedin-b)"/>
  </g>
</svg>
