<svg xmlns="http://www.w3.org/2000/svg" xmlns:xlink="http://www.w3.org/1999/xlink" width="62" height="62" viewBox="0 0 62 62">
  <defs>
    <polygon id="icon-youtube-a" points="0 0 62 0 62 44 0 44"/>
  </defs>
  <g fill="none" fill-rule="evenodd" transform="translate(0 9)">
    <mask id="icon-youtube-b" fill="#fff">
      <use xlink:href="#icon-youtube-a"/>
    </mask>
    <path fill="#9B9B9B" d="M24.8,31.4286453 L24.8,12.5713547 L40.9077005,22 L24.8,31.4286453 Z M60.704729,6.87060207 C59.9912582,4.16665099 57.8906532,2.03650047 55.2230481,1.31368768 C50.3879821,0 30.9997448,0 30.9997448,0 C30.9997448,0 11.6120179,0 6.77695189,1.31368768 C4.10934683,2.03650047 2.00874182,4.16665099 1.29578137,6.87060207 C0,11.7724835 0,22 0,22 C0,22 0,32.2275165 1.29578137,37.1293979 C2.00874182,39.833349 4.10934683,41.9634995 6.77695189,42.6863123 C11.6120179,44 30.9997448,44 30.9997448,44 C30.9997448,44 50.3879821,44 55.2230481,42.6863123 C57.8906532,41.9634995 59.9912582,39.833349 60.704729,37.1293979 C62,32.2275165 62,22 62,22 C62,22 62,11.7724835 60.704729,6.87060207 L60.704729,6.87060207 Z" mask="url(#icon-youtube-b)"/>
  </g>
</svg>
