<svg xmlns="http://www.w3.org/2000/svg" xmlns:xlink="http://www.w3.org/1999/xlink" width="62" height="62" viewBox="0 0 62 62">
  <defs>
    <polygon id="icon-rss-a" points="0 .056 16.943 .056 16.943 16.999 0 16.999"/>
    <polygon id="icon-rss-c" points="0 .027 38.98 .027 38.98 39 0 39"/>
    <polygon id="icon-rss-e" points="0 .151 60.855 .151 60.855 60.849 0 60.849"/>
  </defs>
  <g fill="none" fill-rule="evenodd" transform="translate(1 1)">
    <g transform="translate(0 44)">
      <mask id="icon-rss-b" fill="#fff">
        <use xlink:href="#icon-rss-a"/>
      </mask>
      <path fill="#9B9B9B" d="M2.47039364,2.52663273 C0.823711818,4.17362364 -1.54545455e-05,6.17375091 -1.54545455e-05,8.52716909 C-1.54545455e-05,10.8812055 0.822939091,12.8810236 2.47039364,14.5280145 C4.11815727,16.1748509 6.11859364,16.9987327 8.47154818,16.9987327 C10.8248118,16.9987327 12.8247845,16.1748509 14.4722391,14.5280145 C16.1190755,12.8810236 16.9428027,10.8812055 16.9428027,8.52716909 C16.9428027,6.17359636 16.1190755,4.17362364 14.4722391,2.52663273 C12.8252482,0.879641818 10.8252755,0.05576 8.47154818,0.05576 C6.11797545,0.05576 4.11815727,0.879641818 2.47039364,2.52663273 Z" mask="url(#icon-rss-b)"/>
    </g>
    <g transform="translate(0 22)">
      <mask id="icon-rss-d" fill="#fff">
        <use xlink:href="#icon-rss-c"/>
      </mask>
      <path fill="#9B9B9B" d="M16.3101961,3.52904297 C12.0765633,1.57142578 7.63970391,0.404320312 3.00053203,0.027421875 L2.78344219,0.027421875 C2.02949297,0.027421875 1.40595,0.274066406 0.913422656,0.766898437 C0.3042,1.28821875 -3.046875e-05,1.97010937 -3.046875e-05,2.81089453 L-3.046875e-05,8.68267969 C-3.046875e-05,9.40753125 0.238996875,10.0309219 0.717203906,10.5533086 C1.19556328,11.0756953 1.79716875,11.3656055 2.52217266,11.4228867 C9.16222734,12.0610547 14.8384031,14.736668 19.5500906,19.4480508 C24.2620828,24.1594336 26.9372391,29.8359141 27.5751023,36.4756641 C27.6332977,37.2014297 27.9230555,37.8028828 28.4452898,38.2804805 C28.9673719,38.7600586 29.5904578,38.999543 30.3153094,38.999543 L36.1873992,38.999543 C37.0278797,38.999543 37.7093133,38.6956172 38.2310906,38.0862422 C38.7827273,37.5053555 39.0289148,36.8092969 38.9720906,35.9977617 C38.5944305,31.3591992 37.4271727,26.9220352 35.4700125,22.688707 C33.513157,18.4547695 30.8812664,14.7001055 27.5757117,11.4228867 C24.2987977,8.11733203 20.5438289,5.48605078 16.3101961,3.52904297 Z" mask="url(#icon-rss-d)"/>
    </g>
    <mask id="icon-rss-f" fill="#fff">
      <use xlink:href="#icon-rss-e"/>
    </mask>
    <path fill="#9B9B9B" d="M55.6609864,36.3403272 C52.5785943,29.4574436 48.3432568,23.3434015 42.9560335,17.997748 C37.596964,12.6234064 31.4682047,8.39900545 24.5676365,5.3237901 C17.6678251,2.24917871 10.443639,0.524418812 2.8949268,0.150869307 L2.76550993,0.150869307 C2.01640571,0.150869307 1.38264144,0.409515347 0.863914392,0.926958416 C0.287971464,1.44379752 -7.56823821e-05,2.10528515 -7.56823821e-05,2.91006238 L-7.56823821e-05,9.07423317 C-7.56823821e-05,9.79294604 0.25224938,10.4175921 0.756294045,10.9493792 C1.26033871,11.4813173 1.87230645,11.761102 2.5925,11.7903941 C8.78695161,12.1645475 14.6712568,13.6306614 20.2461725,16.1882827 C25.8209367,18.746055 30.6611278,22.0726688 34.7665943,26.1672183 C38.871304,30.2625228 42.2060211,35.0908842 44.7702916,40.6518495 C47.3342593,46.2137208 48.7899342,52.082555 49.1355,58.2613718 C49.1648648,58.9806886 49.4451923,59.5914436 49.9775422,60.0942406 C50.511103,60.5967356 51.1525868,60.8490401 51.9013883,60.8490401 L58.0805521,60.8490401 C58.8874777,60.8490401 59.5490931,60.5618569 60.0685769,59.9859807 C60.6452767,59.4114634 60.9038077,58.7368396 60.8473486,57.9604485 C60.4731749,50.4299683 58.7435298,43.2239658 55.6609864,36.3403272" mask="url(#icon-rss-f)"/>
  </g>
</svg>
