<svg xmlns="http://www.w3.org/2000/svg" width="2553" height="1249" viewBox="0 0 2553 1249">
    <defs>
        <linearGradient id="a" x1="50%" x2="50%" y1="2.3%" y2="91%">
            <stop offset="0%" stop-color="#3D85BA"/>
            <stop offset="100%" stop-color="#FFF"/>
        </linearGradient>
    </defs>
    <g fill="none" fill-rule="evenodd">
        <path fill="#ffffff" fill-opacity=".4" d="M0 86.8c37-1 70.5-3.4 100.5-7 45.1-5.6 171-30.1 219.3-40C368 30 577.4.2 715.4.2s233.3 5 405.2 44.4c172 39.5 353.4 39.3 468.5 32.2 115-7 171.5-17.4 240-32.2C1897.8 29.8 2048.5.2 2191.4.2c95.4 0 215.9 18.1 361.6 54.4v1183.6H0V86.8Z"/>
        <path fill="#ffffff" fill-opacity=".4" d="M0 81.2c37-1 80.6-1.3 148-12.2 67.3-10.8 90.8-18.8 201-43.6C459 .6 527.4.2 665.4.2s283.2 15 455.1 54.4c172 39.5 353.4 39.3 468.5 32.2 115-7 171.5-17.4 240-32.2 68.7-14.8 219.4-44.4 362.3-44.4 95.4 0 215.9 18.1 361.6 54.4v1183.6H0V81.2Z"/>
        <path fill="url(#a)" d="M0 86.6c37-1 70.5-3.4 100.5-7 45.1-5.6 171-30 219.3-40C368 29.8 507.5 10 645.5 10s233.4 5 405.2 44.4c172.1 39.5 353.5 39.3 468.5 32.2 115.1-7 171.5-17.4 240-32.2C1828 39.6 1978.7 10 2121.6 10c95.4 0 239.2 14.8 431.5 44.4V1238H0V86.6Z" transform="translate(0 .2)"/>
    </g>
</svg>