<svg xmlns="http://www.w3.org/2000/svg" xmlns:xlink="http://www.w3.org/1999/xlink" width="17" height="17" viewBox="0 0 17 17">
  <defs>
    <polygon id="arrow-circle-a" points="0 0 16.734 0 16.734 17 0 17"/>
  </defs>
  <g fill="none" fill-rule="evenodd" transform="matrix(1 0 0 -1 0 17)">
    <mask id="arrow-circle-b" fill="#fff">
      <use xlink:href="#arrow-circle-a"/>
    </mask>
    <path fill="#3C83B7" d="M13.9152598,14.1365363 C12.4335423,15.6419138 10.4635259,16.4706403 8.36802852,16.4706403 L8.3670193,16.4706403 L8.36651468,16.4706403 C6.27084912,16.4706403 4.30049624,15.641572 2.81877877,14.1363655 C1.3368931,12.630988 0.520930851,10.6295708 0.521099056,8.50034174 C0.520762646,6.3709418 1.33672489,4.3693537 2.81861057,2.86380541 C4.30049624,1.35842798 6.27135373,0.529188863 8.36752391,0.529188863 C10.4635259,0.529188863 12.4335423,1.35842798 13.9155962,2.86380541 C15.3973137,4.3693537 16.2132759,6.3709418 16.2132759,8.5 C16.2132759,10.6293999 15.3973137,12.630988 13.9152598,14.1365363 M14.2839651,2.48959694 C12.7036795,0.883917982 10.6026314,0 8.36752391,0 C6.13224823,0 4.03052729,0.883917982 2.45024171,2.48959694 C0.869619727,4.09493416 -0.000336312385,6.22980199 9.75301187e-08,8.50034174 C-0.000168107427,10.7708815 0.869956137,12.9054076 2.45040992,14.5107448 C4.03052729,16.1159111 6.13157541,17 8.36651468,17 L8.36802852,17 C10.6026314,16.9998291 12.7036795,16.1159111 14.2836287,14.5107448 C15.8642507,12.9054076 16.7347113,10.7707106 16.7343749,8.5 C16.7347113,6.22946025 15.8642507,4.09476329 14.2839651,2.48959694" mask="url(#arrow-circle-b)"/>
    <polygon fill="#3C83B7" points="7.096 5.313 6.641 5.733 9.636 8.5 6.641 11.267 7.096 11.688 10.359 8.673 10.359 8.327"/>
  </g>
</svg>
