<svg xmlns="http://www.w3.org/2000/svg" xmlns:xlink="http://www.w3.org/1999/xlink" width="169" height="36" viewBox="0 0 169 36">
  <defs>
    <polygon id="duroair-logo-light-a" points="0 35.67 177.922 35.67 177.922 0 0 0"/>
  </defs>
  <g fill="none" fill-rule="evenodd">
    <path fill="#FEFEFE" d="M57.7178731 19.8959831C57.6644731 23.662293 57.6044617 25.258462 56.6615703 26.9829127 56.0141589 28.030969 54.4884446 29.7848282 51.5204217 29.7848282 48.9750217 29.7848282 47.221976 28.5998704 46.5837189 26.4474761 46.3716446 25.7594197 46.3716446 24.8584056 46.3716446 23.8154197L46.3716446 8.87846197 37.9741131 8.87896901 37.9741131 14.794631 40.1558846 14.794631 40.1558846 23.9203775C40.1558846 27.8824056 40.1558846 30.275138 41.9241874 32.5056169 43.4687189 34.4724338 45.9713989 35.5118704 49.1616674 35.5118704 54.160416 35.5118704 56.7571817 33.047138 57.6105646 32.2368845L57.7178731 32.134969 57.7178731 34.8851662 63.8812503 34.8851662 63.8812503 8.87846197 57.7178731 8.87846197 57.7178731 19.8959831zM74.9055023 12.5211042L74.7870051 12.7264563 74.7661537 12.5261746 74.7661537 8.87851268 68.8117994 8.87851268 68.8117994 34.8852169 74.7661537 34.8852169 74.7661537 25.2793014C74.7661537 21.0673014 74.7661537 18.2846535 77.516508 16.1870197 79.4226337 14.7495549 81.7290051 14.6623437 83.1077423 14.6096113L83.1535137 14.6080901 83.1535137 8.30251268C77.4224223 8.16256901 75.7156566 11.1206535 74.9055023 12.5211042M102.976255 28.1767437C101.793318 29.3997296 100.203015 30.0467155 98.3772434 30.0467155 94.9382834 30.0467155 91.2369006 27.4100958 91.2369006 21.6211944 91.2369006 16.9062085 94.0442149 13.612969 98.0629463 13.612969 102.825209 13.612969 105.054786 17.6601803 105.150906 21.6713915 105.246009 24.2791099 104.453146 26.6510535 102.976255 28.1767437M98.1153291 8.09482817C90.4064034 8.09482817 84.8111006 13.8492507 84.8111006 21.7773634 84.8111006 29.956462 90.3896206 35.669307 98.3772434 35.669307 106.180255 35.669307 111.630106 29.956462 111.630106 21.7773634 111.581283 13.7214761 106.023615 8.09482817 98.1153291 8.09482817"/>
    <mask id="duroair-logo-light-b" fill="#fff">
      <use xlink:href="#duroair-logo-light-a"/>
    </mask>
    <polygon fill="#3C83B7" points="143.346 34.885 149.457 34.885 149.457 8.878 143.346 8.878" mask="url(#duroair-logo-light-b)"/>
    <path fill="#3C83B7" d="M160.439893 12.5220676L160.321396 12.7269127 160.300545 12.5261239 160.300545 8.87846197 154.34619 8.87846197 154.34619 34.8851662 160.300545 34.8851662 160.300545 25.2792507C160.300545 21.0672507 160.300545 18.2840958 163.051407 16.1874761 164.957533 14.7495042 167.263905 14.662293 168.642642 14.6095606L168.688413 14.6080394 168.688413 8.30246197C162.970036 8.16454648 161.250047 11.1206028 160.439893 12.5220676M132.050266 24.8089183C132.050266 25.5867211 132.050266 26.3908901 131.677483 27.1874535 131.035666 28.6649746 128.823889 30.2555662 125.486643 30.2555662 122.787146 30.2555662 121.175992 29.0787211 121.175992 27.108862 121.175992 24.1766366 124.492386 23.7152282 126.473272 23.4393972 129.400609 22.9531437 130.783415 22.4633408 131.958215 21.8782141L132.050266 21.8320732 132.050266 24.8089183zM138.214152 16.8645803C138.214152 14.184862 138.214152 11.6532 135.098643 9.75787606 133.226083 8.65505915 130.591175 8.09477746 127.268678 8.09477746 122.040563 8.09477746 118.549221 9.61336901 116.891786 12.6089746 116.055186 14.1209746 115.951946 15.2511718 115.856335 16.4386648L122.172283 16.7971437 122.171775 16.7180451C122.168215 16.0320169 122.165163 15.3226648 122.815626 14.5250873 123.291141 13.8928056 124.538158 12.829031 127.531101 12.829031 132.050266 12.829031 132.050266 15.6568056 132.050266 16.8645803L132.050266 16.9112282 132.006021 16.9249183C129.666592 17.6667211 129.210912 17.7757352 123.874472 18.8602986 121.609803 19.2841859 117.396289 20.0711155 115.477449 23.8962423 114.925649 24.997538 114.645935 26.1840169 114.645935 27.4222141 114.645935 32.185369 118.521758 35.5130873 124.071289 35.5130873 127.444643 35.5130873 130.269758 34.1435662 131.787843 32.8617634L131.892609 32.773538 131.892609 32.9104394C131.892609 33.1776507 131.950586 33.8205803 132.000935 34.3869465L132.044672 34.885369 139.306563 34.885369C138.214152 33.3718479 138.214152 32.6817634 138.214152 30.7149465L138.214152 16.8645803zM22.5551937 15.3831042C21.571108 14.9576958 11.1886223 8.7768507.050908 16.8540338L.0000508571429 17.3235549.0000508571429 21.0416958C9.061268 13.459893 22.5551937 15.3831042 22.5551937 15.3831042M28.0394754 14.3600958C19.0245383 21.6523775 5.85355543 19.8518704 5.85355543 19.8518704 6.83764114 20.2691662 17.6727554 26.2695042 28.2846069 18.2805465 28.3024069 17.9550254 28.3130869 17.6274761 28.3130869 17.2978986 28.3130869 16.2767155 28.2205269 15.2950817 28.0394754 14.3600958" mask="url(#duroair-logo-light-b)"/>
    <path fill="#FEFEFE" d="M5.27693714,35.0683606 L5.27693714,25.9486986 L11.2811314,25.9486986 L11.2811314,29.8691493 L15.09796,29.8691493 C26.81036,29.8691493 28.0751771,21.0775437 28.0751771,17.2980507 C28.0751771,9.7547831 23.2239143,5.25174085 15.09796,5.25174085 L11.2811314,5.24413521 L11.2811314,9.10171268 L5.27693714,9.10171268 L5.27693714,-0.000202816901 L15.0450686,-0.000202816901 C27.1617829,-0.000202816901 34.3951943,6.42706479 34.3951943,17.193093 C34.3951943,28.0519099 26.7172914,35.0683606 14.8340114,35.0683606 L5.27693714,35.0683606 Z" mask="url(#duroair-logo-light-b)"/>
  </g>
</svg>
