<svg xmlns="http://www.w3.org/2000/svg" viewBox="0 0 169.6 55.97">
  <defs>
    <style>
      .a {
        fill: #fff;
      }

      .b {
        fill: #18445c;
      }

      .c {
        fill: #3c83b8;
      }

      .d {
        fill: #587c9c;
      }
    </style>
  </defs>
  <title>duroair-logo</title>
  <g>
    <path class="a" d="M22.1,0h0C3.06,0,0,15.84,0,22.44V56H147.5c19,0,22.1-15.85,22.1-22.44V0Z"/>
    <g>
      <g>
        <path class="b" d="M61.81,29.65c-.06,3.26-.06,4.69-1,6.19a5.12,5.12,0,0,1-4.49,2.45c-2.24,0-3.74-1-4.28-2.93a7.8,7.8,0,0,1-.2-2.31v-13H44.68v5.17h1.9v8c0,3.46,0,5.57,1.57,7.48a7.74,7.74,0,0,0,6.32,2.65,10.13,10.13,0,0,0,7.34-2.86l.07-.07v2.38h5.38V20.06H61.88v9.59Z"/>
        <path class="b" d="M76.1,23.26l-.14.2v-3.4H70.79V42.77H76V34.41c0-3.67,0-6.12,2.38-8a8.18,8.18,0,0,1,4.9-1.36h.06V19.58c-5-.13-6.46,2.45-7.2,3.68"/>
        <path class="b" d="M100.58,36.93a5.31,5.31,0,0,1-4,1.63c-3,0-6.18-2.31-6.18-7.35,0-4.14,2.44-7,5.91-7,4.15,0,6,3.54,6.19,7a7.87,7.87,0,0,1-1.9,5.72M96.29,19.38c-6.73,0-11.56,5-11.56,12,0,7.14,4.83,12.1,11.83,12.1,6.8,0,11.57-5,11.57-12.1s-4.9-12-11.84-12"/>
      </g>
      <rect class="c" x="134.78" y="20.06" width="5.3" height="22.71"/>
      <g>
        <path class="c" d="M149.13,23.26l-.13.2v-3.4h-5.17V42.77H149V34.41c0-3.67,0-6.12,2.38-8a8.17,8.17,0,0,1,4.89-1.36h.07V19.58c-5-.13-6.53,2.45-7.21,3.68"/>
        <path class="c" d="M125.6,34a4.74,4.74,0,0,1-.34,2.11c-.54,1.29-2.51,2.65-5.37,2.65-2.38,0-3.74-1-3.74-2.72,0-2.58,2.86-3,4.62-3.19a16,16,0,0,0,4.76-1.36l.07-.07V34Zm5.31-6.93c0-2.32,0-4.56-2.72-6.19a13.62,13.62,0,0,0-6.8-1.43c-4.56,0-7.62,1.29-9,3.94a6.83,6.83,0,0,0-.88,3.34l5.51.34V27a2.7,2.7,0,0,1,.54-1.91c.41-.54,1.5-1.49,4.08-1.49,3.94,0,3.94,2.45,3.94,3.53v.07h-.06a48.07,48.07,0,0,1-7.08,1.7c-2,.34-5.64,1.09-7.34,4.42a6.72,6.72,0,0,0-.75,3.06c0,4.15,3.4,7.07,8.23,7.07a11.12,11.12,0,0,0,6.73-2.31l.07-.07v.14c0,.2.07.82.07,1.29l.07.41h6.32c-.95-1.29-.95-1.9-.95-3.67V27.07Z"/>
        <path class="c" d="M31.76,25.71c-.89-.34-9.93-5.79-19.59,1.29l-.07.41v3.26c7.89-6.6,19.66-5,19.66-5"/>
        <path class="c" d="M36.52,24.82C28.7,31.21,17.2,29.65,17.2,29.65c.89.34,10.27,5.58,19.52-1.36v-.88a11,11,0,0,0-.2-2.59"/>
        <path class="b" d="M16.73,42.91V35H22v3.4H25.3c10.2,0,11.29-7.68,11.29-10.94,0-6.6-4.22-10.55-11.29-10.55H22V20.2H16.73V12.31h8.5c10.54,0,16.86,5.64,16.86,15s-6.66,15.57-17,15.57Z"/>
      </g>
    </g>
    <g>
      <path class="d" d="M158.25,16.75h-.85v-.3h2.07v.3h-.85v2.5h-.37Z"/>
      <path class="d" d="M162.15,18c0-.39,0-.86,0-1.21h0c-.1.33-.21.68-.36,1.06l-.49,1.37H161l-.45-1.34a11.34,11.34,0,0,1-.32-1.09h0c0,.35,0,.82-.06,1.24l-.07,1.2h-.35l.2-2.8h.46l.48,1.35c.12.35.21.66.28.95h0c.08-.28.18-.59.3-.95l.5-1.35h.46l.18,2.8h-.36Z"/>
    </g>
  </g>
</svg>
