<svg width="104" height="83" viewBox="0 0 104 83" fill="none" xmlns="http://www.w3.org/2000/svg">
<path opacity="0.2" d="M84.4777 42.413C96.1406 42.413 104 50.6526 104 62.8612C104 73.8474 94.9669 83 82.732 83C69.3308 83 59.4286 72.0138 59.4286 55.2327C59.4286 17.0905 86.8103 1.83355 104 0V16.7811C92.3446 18.9165 79.2406 30.8156 78.6537 43.9447C79.2406 43.6429 81.5657 42.413 84.4777 42.413ZM25.0566 42.413C36.7046 42.413 44.5714 50.6526 44.5714 62.8612C44.5714 73.8474 35.5383 83 23.3034 83C9.90229 83 0 72.0138 0 55.2327C0 17.0905 27.3817 1.83355 44.5714 0V16.7811C32.916 18.9165 19.812 30.8156 19.2251 43.9447C19.812 43.6429 22.1371 42.413 25.0566 42.413Z" fill="#003A70"/>
</svg>
