<svg xmlns="http://www.w3.org/2000/svg" width="1511" height="131" viewBox="0 0 1511 131">
  <g fill="#f4f4f4">
    <path fill-opacity=".3" d="M0,20.3529281 C42.7730625,18.2456409 91.6295625,17 149.333625,17 C527.333625,17 527.333625,70.3846086 905.333625,70.3846086 C1225.62956,70.3846086 1274.56875,32.0694448 1512,20.3716595 L1512,109 L0,109 L0,20.3529281 Z"/>
    <path fill-opacity=".5" d="M0,8.74347553 C51.337125,3.36505653 111.699,0 187.133625,0 C565.133625,0 565.133625,84.353271 943.133625,84.353271 C1245.68719,84.353271 1306.10812,30.3233184 1512,8.73402313 L1512,123 L0,123 L0,8.74347553 Z"/>
    <path d="M0,131 L0,20.6363883 C33.31125,18.9475986 70.16625,18 111.533625,18 C489.533625,18 489.533625,97.0916489 867.533625,97.0916489 C1204.18987,97.0916489 1241.00944,34.3718775 1512,20.6363883 L1512,131 L0,131 Z"/>
  </g>
</svg>
