<svg width="24" height="25" viewBox="0 0 24 25" fill="none" xmlns="http://www.w3.org/2000/svg">
<path d="M12.7747 24.0366H1.32002C0.590778 24.0366 0 23.4434 0 22.7119V1.36123C0 0.629546 0.590871 0.0366211 1.32002 0.0366211H22.5967C23.3257 0.0366211 23.9167 0.629546 23.9167 1.36123V22.7119C23.9167 23.4435 23.3256 24.0366 22.5967 24.0366H16.5022V14.7425H19.6109L20.0764 11.1204H16.5022V8.80794C16.5022 7.75926 16.7923 7.04463 18.2909 7.04463L20.2023 7.04379V3.80417C19.8717 3.76003 18.7371 3.66141 17.4171 3.66141C14.6613 3.66141 12.7747 5.34938 12.7747 8.44923V11.1204H9.65791V14.7425H12.7747V24.0366Z" fill="#3C83B7"/>
</svg>
