<svg width="23" height="23" viewBox="0 0 23 23" fill="none" xmlns="http://www.w3.org/2000/svg">
<path d="M0.916016 2.81133V19.2619C0.916016 20.8147 2.13794 22.0366 3.69072 22.0366H20.1413C20.9013 22.0366 21.6275 21.673 22.0905 21.2111C22.5862 20.7153 22.916 20.0875 22.916 19.2619V2.81133C22.916 1.25855 21.6941 0.0366211 20.1413 0.0366211H3.69072C2.86518 0.0366211 2.23731 0.367472 1.74156 0.862163C1.27858 1.32514 0.916016 2.05132 0.916016 2.81133ZM3.88945 4.99093C3.88945 3.9339 4.74881 3.00899 5.80584 3.00899C6.89564 3.00899 7.78778 3.9339 7.78778 4.99093C7.78778 6.08073 6.89564 6.94009 5.80584 6.94009C4.74881 6.94009 3.88945 6.08073 3.88945 4.99093ZM9.20737 18.5674V8.49287C9.20737 8.26138 9.43886 8.06372 9.60376 8.06372H12.4112C12.8076 8.06372 12.8076 8.5267 12.8076 8.82372C13.6004 8.03095 14.6247 7.83223 15.6817 7.83223C18.2587 7.83223 19.9098 9.05416 19.9098 11.7633V18.5685C19.9098 18.8 19.7111 18.9977 19.5134 18.9977H16.6066C16.3751 18.9977 16.2102 18.7662 16.2102 18.5685V12.424C16.2102 11.3997 15.9132 10.8384 14.7568 10.8384C13.3034 10.8384 12.9398 11.7961 12.9398 13.0846V18.5685C12.9398 18.8 12.7083 18.9977 12.4768 18.9977H9.6027C9.43781 18.9977 9.20632 18.7662 9.20632 18.5685L9.20737 18.5674ZM3.95498 18.5674V8.49287C3.95498 8.26138 4.18647 8.06372 4.35137 8.06372H7.22544C7.4897 8.06372 7.65459 8.22862 7.65459 8.49287V18.5674C7.65459 18.7989 7.45587 18.9966 7.22544 18.9966H4.35137C4.15265 18.9966 3.95498 18.7651 3.95498 18.5674Z" fill="#3C83B7"/>
</svg>
