<svg width="25" height="21" viewBox="0 0 25 21" fill="none" xmlns="http://www.w3.org/2000/svg">
<path d="M24.8327 2.40426C23.9539 2.80585 23.0077 3.07743 22.0152 3.19877C23.0288 2.57472 23.8065 1.58519 24.1729 0.40643C23.2239 0.984256 22.1753 1.40462 21.055 1.62998C20.1622 0.649117 18.8862 0.0366211 17.4739 0.0366211C14.766 0.0366211 12.569 2.29737 12.569 5.08538C12.569 5.48119 12.6111 5.86544 12.6954 6.23525C8.6173 6.02434 5.0025 4.0164 2.58093 0.958254C2.15839 1.70654 1.91693 2.57472 1.91693 3.49924C1.91693 5.25006 2.78308 6.79574 4.09985 7.70148C3.29687 7.67692 2.53882 7.44724 1.87622 7.07165V7.13377C1.87622 9.58086 3.56781 11.622 5.8139 12.0843C5.40258 12.2027 4.96881 12.262 4.52099 12.262C4.20514 12.262 3.8963 12.2316 3.59729 12.1724C4.22198 14.1775 6.03289 15.6379 8.18072 15.6769C6.50177 17.0319 4.38482 17.8394 2.08679 17.8394C1.69092 17.8394 1.29925 17.8163 0.916016 17.7701C3.08771 19.2002 5.6679 20.0366 8.43762 20.0366C17.4641 20.0366 22.3985 12.3443 22.3985 5.67187C22.3985 5.45229 22.3943 5.23272 22.3858 5.01748C23.3446 4.30531 24.1771 3.4169 24.8327 2.40426Z" fill="#3C83B7"/>
</svg>
