<svg width="25" height="18" viewBox="0 0 25 18" fill="none" xmlns="http://www.w3.org/2000/svg">
<path fill-rule="evenodd" clip-rule="evenodd" d="M23.5608 1.8048C24.2775 2.53822 24.5115 4.2037 24.5115 4.2037C24.5115 4.2037 24.7507 6.15998 24.7507 8.11551V9.94943C24.7507 11.9057 24.5115 13.8612 24.5115 13.8612C24.5115 13.8612 24.2775 15.5267 23.5608 16.2601C22.7413 17.1277 21.8327 17.2174 21.3191 17.2681C21.2626 17.2736 21.2109 17.2787 21.1646 17.2843C17.8178 17.5291 12.7923 17.5366 12.7923 17.5366C12.7923 17.5366 6.57398 17.4792 4.66065 17.2934C4.57 17.2763 4.46011 17.263 4.33566 17.2479C3.72959 17.1744 2.77834 17.0591 2.02309 16.2601C1.30634 15.5267 1.07315 13.8612 1.07315 13.8612C1.07315 13.8612 0.833984 11.9057 0.833984 9.94943V8.11551C0.833984 6.15998 1.07315 4.2037 1.07315 4.2037C1.07315 4.2037 1.30634 2.53822 2.02309 1.8048C2.84438 0.93597 3.75387 0.847296 4.2675 0.797218C4.32319 0.791788 4.37422 0.786812 4.41999 0.781345C7.76683 0.536621 12.7871 0.536621 12.7871 0.536621H12.7975C12.7975 0.536621 17.8178 0.536621 21.1646 0.781345C21.2104 0.786821 21.2615 0.791803 21.3172 0.797242C21.8304 0.847325 22.7403 0.936111 23.5608 1.8048ZM10.3222 5.38049L10.3229 12.1716L16.7842 8.78774L10.3222 5.38049Z" fill="#3C83B7"/>
</svg>
