<svg width="23" height="23" viewBox="0 0 23 23" fill="none" xmlns="http://www.w3.org/2000/svg">
<path fill-rule="evenodd" clip-rule="evenodd" d="M4.37347 14.7033V14.7122C2.3715 14.7122 0.75 16.542 0.75 18.3753C0.75 20.2087 2.56173 22.0366 4.37347 22.0366C6.37545 22.0366 7.99698 20.2087 7.99698 18.3753V18.37C7.99698 16.3441 6.37545 14.7033 4.37347 14.7033ZM4.37347 7.36995V11.0366C7.99696 11.0366 11.8795 14.7033 11.8795 18.37H15.503C15.503 12.87 9.8087 7.36995 4.37347 7.36995ZM22.75 18.37H19.1265C19.1265 11.0366 11.6204 3.70329 4.37347 3.70329V0.0366211C13.4322 0.0366211 22.75 7.36995 22.75 18.37Z" fill="#3C83B7"/>
</svg>
